<?xml version="1.0" standalone="no"?>
<!DOCTYPE svg PUBLIC "-//W3C//DTD SVG 1.1//EN" "http://www.w3.org/Graphics/SVG/1.1/DTD/svg11.dtd" >
<svg xmlns="http://www.w3.org/2000/svg">
<metadata></metadata>
<defs>
<font id="littera_plainbold" horiz-adv-x="890" >
<font-face units-per-em="2048" ascent="1638" descent="-410" />
<missing-glyph horiz-adv-x="512" />
<glyph horiz-adv-x="0" />
<glyph horiz-adv-x="682" />
<glyph unicode=" "  horiz-adv-x="512" />
<glyph unicode="&#x09;" horiz-adv-x="512" />
<glyph unicode="&#xa0;" horiz-adv-x="512" />
<glyph unicode="!" horiz-adv-x="516" d="M102 143q0 66 45 112t111 46t111 -46t45 -112t-45 -109.5t-111 -43.5t-111 43.5t-45 109.5zM119 1331h278l-26 -901h-226z" />
<glyph unicode="&#x22;" horiz-adv-x="716" d="M61 1452h256l-20 -471h-215zM399 1452h256l-20 -471h-215z" />
<glyph unicode="#" horiz-adv-x="1464" d="M0 303v232h332l92 237h-260v232h348l125 327h242l-125 -327h229l125 327h242l-125 -327h239v-232h-329l-91 -237h256v-232h-346l-114 -303h-240l115 303h-232l-114 -303h-240l115 303h-244zM573 535h230l92 237h-231z" />
<glyph unicode="$" horiz-adv-x="1107" d="M82 205l156 157q45 -72 130 -117.5t181 -45.5q219 0 219 180q0 145 -229 207q-81 22 -139 43.5t-115 55t-91.5 74.5t-55.5 100.5t-21 135.5q0 64 18 121t54.5 105.5t98.5 83t144 47.5v278h248v-278q93 -13 162 -52t131 -112l-148 -187q-87 73 -141.5 102.5t-130.5 29.5 q-88 0 -139.5 -34.5t-51.5 -107.5q0 -62 47.5 -96.5t178.5 -77.5q85 -28 142 -52t118 -61t96.5 -80t58.5 -105t23 -140q0 -160 -91 -263t-255 -134v-277h-248v272q-239 33 -350 228z" />
<glyph unicode="%" horiz-adv-x="1638" d="M20 1012q0 148 95.5 249t240.5 101t240.5 -101t95.5 -249t-95.5 -249t-240.5 -101t-240.5 101t-95.5 249zM217 1012q0 -72 39.5 -114t99.5 -42t100 42t40 114q0 73 -39.5 114t-100.5 41t-100 -41t-39 -114zM410 45l600 1339l211 -104l-600 -1339zM946 319 q0 148 95.5 249.5t240.5 101.5t240.5 -101.5t95.5 -249.5t-95.5 -249t-240.5 -101t-240.5 101t-95.5 249zM1143 319q0 -72 39.5 -113.5t99.5 -41.5t99.5 41.5t39.5 113.5q0 73 -39 114.5t-100 41.5t-100 -41.5t-39 -114.5z" />
<glyph unicode="&#x26;" horiz-adv-x="1232" d="M61 332q0 68 17 122.5t51.5 97t73.5 73.5t96 65q-84 92 -114.5 161.5t-30.5 162.5q0 152 110 250t279 98q172 0 280.5 -82.5t108.5 -224.5q0 -122 -59 -215.5t-216 -194.5l177 -168q26 74 26 156h242q0 -163 -82 -334q29 -28 86.5 -82.5t85.5 -81.5q-25 -27 -74.5 -83 t-73.5 -83q-26 24 -77 74t-76 74q-69 -68 -169.5 -108t-211.5 -40q-69 0 -132 12t-121.5 39.5t-101.5 68.5t-68.5 103.5t-25.5 139.5zM317 356q0 -77 50 -116t139 -39q124 0 209 82l-256 247q-72 -43 -107 -83t-35 -91zM410 993q0 -52 17.5 -90.5t72.5 -99.5q95 57 135.5 98 t40.5 92q0 137 -133 137q-61 0 -97 -37t-36 -100z" />
<glyph unicode="'" horiz-adv-x="378" d="M61 1452h256l-20 -471h-215z" />
<glyph unicode="(" horiz-adv-x="612" d="M123 565q0 491 252 910q36 -17 108.5 -51t108.5 -52q-211 -381 -211 -807q0 -432 211 -807q-37 -18 -109.5 -51.5t-109.5 -50.5q-250 421 -250 909z" />
<glyph unicode=")" horiz-adv-x="612" d="M20 -242q211 375 211 807q0 426 -211 807q36 18 109 52t109 51q251 -417 251 -910q0 -490 -249 -909q-37 17 -110 50.5t-110 51.5z" />
<glyph unicode="*" horiz-adv-x="798" d="M20 946v211l242 -27l-143 197l182 105l98 -224l99 224l182 -105l-145 -197l243 27v-211l-241 27l143 -197l-182 -104l-99 223l-98 -223l-182 104l143 197z" />
<glyph unicode="+" horiz-adv-x="1034" d="M102 385v211h289v289h252v-289h289v-211h-289v-289h-252v289h-289z" />
<glyph unicode="," horiz-adv-x="452" d="M61 -205q64 449 66 449h264l-153 -449h-177z" />
<glyph unicode="-" d="M102 385v211h686v-211h-686z" />
<glyph unicode="." horiz-adv-x="434" d="M61 143q0 66 45 112t111 46t111 -46t45 -112t-45 -109.5t-111 -43.5t-111 43.5t-45 109.5z" />
<glyph unicode="/" horiz-adv-x="974" d="M0 -145l764 1570l211 -104l-764 -1571z" />
<glyph unicode="0" horiz-adv-x="1110" d="M82 666q0 696 473 696t473 -696q0 -697 -473 -697t-473 697zM344 666q0 -251 50.5 -358t160.5 -107q112 0 161.5 106t49.5 359q0 254 -49.5 359t-161.5 105q-110 0 -160.5 -106t-50.5 -358z" />
<glyph unicode="1" horiz-adv-x="659" d="M82 842v252l455 278v-1372h-258v967z" />
<glyph unicode="2" horiz-adv-x="1015" d="M51 0q68 92 175 227.5t172 220.5t133 185t100.5 181t32.5 149q0 86 -45 126.5t-113 40.5q-135 0 -174 -161l-232 73q15 72 46.5 128.5t71 92t89.5 58.5t100 32t105 9q65 0 124.5 -12t114.5 -40t95 -69t64 -103t24 -139q0 -45 -8.5 -92t-28.5 -97t-38.5 -92t-52 -95.5 t-55 -88t-62.5 -88t-59 -77.5t-59.5 -75t-50.5 -63h414v-231h-883z" />
<glyph unicode="3" horiz-adv-x="1036" d="M78 287l233 90q39 -174 199 -174q72 0 120 52.5t48 150.5q0 90 -48.5 137t-117.5 47h-98v233h88q157 0 157 164q0 73 -43 109.5t-110 36.5q-25 0 -49.5 -7.5t-50 -24.5t-45 -51t-29.5 -81l-232 73q20 93 65.5 159t106 99t119 47.5t121.5 14.5q189 0 304.5 -89t115.5 -257 q0 -126 -58.5 -207t-158.5 -98v-13q114 -21 176.5 -104.5t62.5 -206.5q0 -86 -25.5 -159.5t-76.5 -132.5t-137.5 -92.5t-200.5 -33.5q-356 0 -436 318z" />
<glyph unicode="4" horiz-adv-x="1042" d="M41 283v211l500 837h325v-837h135v-211h-135v-283h-258v283h-567zM307 494h301v518z" />
<glyph unicode="5" horiz-adv-x="1042" d="M76 287l233 90q19 -86 74.5 -130t122.5 -44q31 0 60 12t57 38t44.5 75.5t16.5 117.5q0 135 -44 194.5t-140 59.5q-51 0 -91.5 -30.5t-62.5 -81.5h-244l80 743h707v-231h-504l-29 -250q28 39 83.5 63.5t121.5 24.5q87 0 155.5 -26t114 -71t75 -108t42.5 -133t13 -151 q0 -96 -24.5 -178.5t-75.5 -152t-142 -109.5t-213 -40q-178 0 -279 77t-151 241z" />
<glyph unicode="6" horiz-adv-x="1052" d="M78 588q0 182 27.5 322t71.5 224t106.5 137t125 72t134.5 19q95 0 171 -27t123 -72.5t74.5 -95.5t40.5 -106l-233 -90q-43 157 -180 157q-42 0 -77 -20t-65.5 -64.5t-49.5 -126t-23 -194.5q72 125 254 125q166 0 279 -108.5t112 -305.5q-1 -100 -25 -180.5t-64.5 -133 t-95 -87t-113 -49.5t-122.5 -15q-246 0 -358.5 148.5t-112.5 470.5zM342 408q0 -106 53 -156.5t131 -50.5q84 0 137.5 50t53.5 157q0 104 -54 156t-137 52q-76 0 -130 -52.5t-54 -155.5z" />
<glyph unicode="7" horiz-adv-x="888" d="M41 1100v231h827l-424 -1331h-268l361 1100h-496z" />
<glyph unicode="8" horiz-adv-x="1058" d="M82 367q0 142 78.5 230t179.5 105v9q-99 22 -158 102.5t-59 194.5q0 170 115 262t292 92t291.5 -92t114.5 -260q0 -115 -60 -196t-159 -103v-9q49 -8 94 -32.5t82.5 -64.5t60.5 -101.5t23 -134.5q0 -108 -37.5 -188.5t-102.5 -125t-141.5 -65.5t-165.5 -21t-165.5 21 t-142 65.5t-103 124t-37.5 187.5zM346 377q0 -64 17.5 -109.5t46.5 -67.5t58.5 -31t61.5 -9q34 0 63.5 9.5t58 32.5t45 68.5t16.5 108.5q0 99 -54 154t-129 55q-76 0 -130 -55.5t-54 -155.5zM383 1006q0 -35 7.5 -66.5t23.5 -59.5t46 -44.5t70 -16.5q76 0 111 55t35 132 q0 74 -37 119.5t-109 45.5t-109.5 -45.5t-37.5 -119.5z" />
<glyph unicode="9" horiz-adv-x="1052" d="M84 303l231 64q40 -164 197 -164q94 0 149.5 92t63.5 313q-72 -125 -254 -125q-162 0 -275 113.5t-112 300.5q1 100 25.5 180.5t64.5 133t96 87t116 49.5t126 15q227 0 343 -148t116 -471q0 -154 -17 -276t-49 -205.5t-73 -142t-94.5 -90.5t-108 -46t-119.5 -14 q-96 0 -173 28.5t-127 77.5t-80.5 106t-45.5 122zM336 924q0 -98 53 -153.5t133 -55.5q76 0 130.5 53t54.5 156q0 98 -55 152t-130 54q-81 0 -133.5 -53t-52.5 -153z" />
<glyph unicode=":" horiz-adv-x="475" d="M82 215q0 66 45 112t111 46t110.5 -46t44.5 -112t-44.5 -110t-110.5 -44t-111 44t-45 110zM82 717q0 66 45 111.5t111 45.5t110.5 -45.5t44.5 -111.5t-44.5 -110t-110.5 -44t-111 44t-45 110z" />
<glyph unicode=";" horiz-adv-x="464" d="M61 -205q64 449 66 449h264l-153 -449h-177zM92 717q0 66 45 111.5t111 45.5t110.5 -45.5t44.5 -111.5t-44.5 -110t-110.5 -44t-111 44t-45 110z" />
<glyph unicode="&#x3c;" horiz-adv-x="833" d="M41 496l588 526l143 -162l-426 -364l426 -363l-141 -164z" />
<glyph unicode="=" horiz-adv-x="972" d="M102 221v211h768v-211h-768zM102 549v211h768v-211h-768z" />
<glyph unicode="&#x3e;" horiz-adv-x="833" d="M61 133l426 363l-426 364l144 162l588 -526l-590 -527z" />
<glyph unicode="?" horiz-adv-x="915" d="M47 1042q17 76 51.5 134.5t75.5 92.5t92 56t96 29.5t93 7.5q187 0 303 -91.5t116 -254.5q0 -178 -157 -287q-89 -61 -116.5 -97t-27.5 -106v-96h-258v150q0 84 40 141t116 102q72 43 91 60q40 39 40 104q0 73 -40 109.5t-107 36.5q-26 0 -50 -7t-50 -24t-46 -51t-30 -82z M297 143q0 66 45 112t111 46t110.5 -46t44.5 -112t-44.5 -109.5t-110.5 -43.5t-111 43.5t-45 109.5z" />
<glyph unicode="@" horiz-adv-x="1765" d="M82 432q0 256 97 449t280 299t428 106q250 0 430 -104t273 -293.5t93 -446.5q0 -202 -91 -327t-251 -125q-104 0 -162 27.5t-92 84.5q-75 -63 -149 -87.5t-174 -24.5q-140 0 -215.5 77t-75.5 193q0 57 18 103.5t47 78t74 54.5t90.5 36t105.5 20.5t110 10t112 2.5 q0 63 -44.5 98t-121.5 35q-133 0 -217 -84l-127 158q137 139 354 139q92 0 163 -18.5t129.5 -60.5t90 -119.5t31.5 -186.5v-204q0 -52 18 -80.5t48 -28.5q96 0 96 229q0 161 -47 284.5t-128 196t-180 108.5t-212 36q-88 0 -169 -21.5t-154.5 -70.5t-127.5 -120t-85.5 -177 t-31.5 -236q0 -326 142.5 -476t425.5 -150q186 0 315 75l125 -180q-186 -114 -440 -114q-385 0 -593 222t-208 613zM729 264q0 -31 24 -51t72 -20q119 0 205 86v106q-120 0 -188 -15t-90.5 -40t-22.5 -66z" />
<glyph unicode="A" horiz-adv-x="1366" d="M20 0l658 1372h12l656 -1372h-281l-109 231h-548l-107 -231h-281zM494 436h376l-188 416z" />
<glyph unicode="B" horiz-adv-x="1296" d="M123 0v1331h524q251 0 377.5 -87.5t126.5 -233.5q0 -51 -11 -96.5t-37 -88.5t-74 -74.5t-116 -45.5v-11q154 -19 227.5 -110.5t73.5 -214.5q0 -76 -28.5 -141t-87 -117t-157.5 -81.5t-230 -29.5h-588zM401 215h244q150 0 215.5 40.5t65.5 137.5q0 94 -77 133t-245 39 h-203v-350zM401 791h162q164 0 232.5 34t68.5 133q0 88 -68 123t-214 35h-181v-325z" />
<glyph unicode="C" horiz-adv-x="1396" d="M82 655q0 322 187 514.5t491 192.5q182 0 310.5 -62t221.5 -196l-192 -158q-72 101 -146.5 138.5t-193.5 37.5q-79 0 -148.5 -26.5t-125.5 -79.5t-88.5 -143t-32.5 -207q0 -123 33.5 -214.5t92 -143t127.5 -75.5t150 -24q117 0 201 44t149 138l197 -145 q-92 -144 -228.5 -210.5t-322.5 -66.5q-307 0 -494.5 183.5t-187.5 502.5z" />
<glyph unicode="D" horiz-adv-x="1363" d="M123 0v1331h491q310 0 489 -175.5t179 -496.5t-174 -490t-485 -169h-500zM401 246h160q228 0 336.5 97.5t108.5 322.5q0 222 -114 320.5t-331 98.5h-160v-839z" />
<glyph unicode="E" horiz-adv-x="1155" d="M123 0v1331h930v-235h-652v-308h539v-225h-539v-327h672v-236h-950z" />
<glyph unicode="F" horiz-adv-x="1093" d="M123 0v1331h909v-235h-631v-318h457v-225h-457v-553h-278z" />
<glyph unicode="G" horiz-adv-x="1452" d="M82 655q0 322 187 514.5t491 192.5q185 0 320 -59t227 -187l-205 -172q-63 94 -144 136t-198 42q-79 0 -148.5 -26.5t-125.5 -79.5t-88.5 -143t-32.5 -207q0 -100 21.5 -179t58 -130t88 -85t107.5 -48.5t120 -14.5q164 0 249 83.5t85 237.5h-385v215h661v-122 q0 -301 -157.5 -477.5t-452.5 -176.5q-202 0 -354.5 80.5t-238 237t-85.5 368.5z" />
<glyph unicode="H" horiz-adv-x="1400" d="M123 0v1331h278v-543h600v543h277v-1331h-277v563h-600v-563h-278z" />
<glyph unicode="I" horiz-adv-x="524" d="M123 0v1331h278v-1331h-278z" />
<glyph unicode="J" horiz-adv-x="831" d="M41 47l82 232q1 -1 19.5 -12.5t23 -14t21.5 -10.5t27.5 -10.5t27.5 -5.5t34 -3q82 0 118 63.5t36 196.5v848h279v-917q0 -219 -110.5 -332t-287.5 -113q-148 0 -270 78z" />
<glyph unicode="K" horiz-adv-x="1368" d="M123 0v1331h278v-612l539 612h328l-590 -631v-14l649 -686h-352l-574 655v-655h-278z" />
<glyph unicode="L" horiz-adv-x="1103" d="M123 0v1331h278v-1079h641v-252h-919z" />
<glyph unicode="M" horiz-adv-x="1660" d="M123 0v1372h10l698 -803l697 803h10v-1372h-276v707l-420 -492h-23l-418 492v-707h-278z" />
<glyph unicode="N" horiz-adv-x="1431" d="M123 0v1372h10l897 -811v770h279v-1372h-11l-897 815v-774h-278z" />
<glyph unicode="O" horiz-adv-x="1519" d="M82 666q0 313 182 504.5t496 191.5t496 -191.5t182 -504.5q0 -206 -80.5 -363t-235 -245.5t-362.5 -88.5t-362.5 88.5t-235 245.5t-80.5 363zM365 666q0 -211 105.5 -334t289.5 -123q186 0 290.5 122.5t104.5 334.5q0 213 -104 334.5t-291 121.5q-184 0 -289.5 -122 t-105.5 -334z" />
<glyph unicode="P" horiz-adv-x="1200" d="M123 0v1331h483q91 0 167.5 -14t141 -46t109 -80.5t69.5 -120t25 -161.5q0 -112 -38 -197t-107 -136.5t-161 -77t-206 -25.5h-205v-473h-278zM401 702h134q167 0 236 43.5t69 163.5q0 48 -13.5 82.5t-37 55.5t-63.5 33t-84 16t-107 4h-134v-398z" />
<glyph unicode="Q" horiz-adv-x="1478" d="M82 666q0 313 182 504.5t496 191.5t496 -191.5t182 -504.5q0 -264 -132 -445t-366 -233l330 -271l-322 -59l-274 315q-277 26 -434.5 214t-157.5 479zM365 666q0 -211 105.5 -334t289.5 -123q186 0 290.5 122.5t104.5 334.5q0 213 -104 334.5t-291 121.5 q-184 0 -289.5 -122t-105.5 -334z" />
<glyph unicode="R" horiz-adv-x="1261" d="M123 0v1331h483q114 0 209 -25t168.5 -75.5t114.5 -135t41 -196.5q0 -138 -67 -238t-175 -153l324 -508h-338l-256 453h-21h-205v-453h-278zM401 682h134q167 0 246 49t79 168q0 115 -82 158t-243 43h-134v-418z" />
<glyph unicode="S" horiz-adv-x="1230" d="M74 199l174 188q47 -69 155 -118.5t207 -49.5q120 0 180 46.5t60 113.5q0 60 -47.5 98.5t-171.5 71.5q-107 28 -182.5 54t-142 62.5t-106 80t-61.5 103t-22 134.5q0 176 133.5 277.5t357.5 101.5q348 0 482 -158l-158 -196q-141 118 -324 118q-88 0 -140 -34t-52 -103 q0 -41 14.5 -65.5t60.5 -49t138 -51.5q18 -5 55 -16q51 -15 77.5 -23t74 -24t73 -28.5t64 -33.5t60 -41.5t47 -50.5t38.5 -62.5t22 -74.5t9 -90q0 -100 -45 -180t-121.5 -129t-171.5 -75t-201 -26q-68 0 -137.5 10.5t-146.5 34.5t-144 72t-108 113z" />
<glyph unicode="T" horiz-adv-x="1232" d="M61 1096v235h1110v-235h-415v-1096h-279v1096h-416z" />
<glyph unicode="U" horiz-adv-x="1382" d="M102 551v780h279v-688q0 -84 8 -146t28.5 -116t55 -88t89 -53t128.5 -19q64 0 112.5 12.5t82.5 38.5t57 60.5t36 84t18 103t5 123.5v688h279v-780q0 -148 -45 -261.5t-125.5 -182.5t-185 -103.5t-230.5 -34.5q-99 0 -186.5 21t-162.5 67t-128.5 113.5t-84 164.5 t-30.5 216z" />
<glyph unicode="V" horiz-adv-x="1366" d="M20 1331h291l377 -825l367 825h291l-656 -1372h-12z" />
<glyph unicode="W" horiz-adv-x="1943" d="M41 1331h287l219 -737l414 778h12l426 -778l207 737h297l-428 -1372h-13l-495 897l-498 -897h-12z" />
<glyph unicode="X" horiz-adv-x="1409" d="M41 0l500 690l-459 641h342l281 -446l290 446h332l-461 -641l502 -690h-342l-324 485l-329 -485h-332z" />
<glyph unicode="Y" horiz-adv-x="1314" d="M20 1331h295l344 -645l340 645h295l-497 -887v-444h-279v444z" />
<glyph unicode="Z" horiz-adv-x="1224" d="M41 0v10l692 1075h-631v246h1082v-10l-692 -1073h673v-248h-1124z" />
<glyph unicode="[" horiz-adv-x="645" d="M143 -307v1747h502v-221h-254v-1305h254v-221h-502z" />
<glyph unicode="\" horiz-adv-x="974" d="M0 1321l211 104l764 -1570l-211 -105z" />
<glyph unicode="]" horiz-adv-x="645" d="M0 -86h254v1305h-254v221h502v-1747h-502v221z" />
<glyph unicode="^" horiz-adv-x="1052" d="M61 864l465 508l465 -506l-162 -143l-303 344l-301 -344z" />
<glyph unicode="_" horiz-adv-x="1136" d="M123 0v221h891v-221h-891z" />
<glyph unicode="`" horiz-adv-x="452" d="M20 1331h285l148 -448h-197z" />
<glyph unicode="a" horiz-adv-x="1060" d="M61 252q0 68 21.5 122.5t55.5 90.5t86.5 63t104 41.5t117.5 23t118 11t116 2.5q0 45 -17 78.5t-46 50.5t-61 25t-69 8q-139 0 -231 -92l-115 160q99 83 185.5 110t179.5 27q432 0 432 -385v-588h-225l-8 123q-128 -154 -336 -154q-144 0 -226 78t-82 205zM328 276 q0 -58 31 -81t96 -23q55 0 116.5 27.5t108.5 79.5v161q-352 0 -352 -164z" />
<glyph unicode="b" horiz-adv-x="1183" d="M123 0v1331h258v-524q89 162 295 162q193 0 309.5 -133t116.5 -367q0 -235 -115 -367.5t-311 -132.5q-93 0 -176.5 45.5t-139.5 137.5v-152h-237zM373 469q0 -137 62 -214t171 -77q116 0 173 82t57 209t-57 209t-173 82q-109 0 -171 -77t-62 -214z" />
<glyph unicode="c" horiz-adv-x="1081" d="M82 465q0 226 136.5 367t369.5 141q136 0 240.5 -49t170.5 -138l-172 -143q-78 121 -239 121q-114 0 -181 -84.5t-67 -208.5q0 -122 67 -206.5t181 -84.5q164 0 239 117l172 -141q-64 -89 -169 -138t-242 -49q-235 0 -370.5 135.5t-135.5 360.5z" />
<glyph unicode="d" horiz-adv-x="1183" d="M82 469q0 234 116.5 367t309.5 133q206 0 295 -162v524h258v-1331h-238v152q-56 -93 -139 -138t-176 -45q-196 0 -311 132.5t-115 367.5zM348 469q0 -127 57 -209t173 -82q109 0 171 77t62 214t-62 214t-171 77q-116 0 -173 -82t-57 -209z" />
<glyph unicode="e" horiz-adv-x="1099" d="M82 467q0 115 38.5 212t104 160.5t150.5 98.5t178 35q223 0 344 -126.5t121 -363.5v-98h-678q3 -66 43.5 -114.5t94 -69.5t110.5 -21q167 0 268 117l148 -145q-70 -94 -178.5 -138.5t-237.5 -44.5q-247 0 -376.5 134.5t-129.5 363.5zM348 565h420q-19 199 -205 199 q-84 0 -144 -51t-71 -148z" />
<glyph unicode="f" horiz-adv-x="798" d="M61 752v190h158v82q0 145 82.5 224t218.5 79q52 0 116 -12t101 -25l-32 -196q-8 3 -56.5 8.5t-68.5 5.5q-66 0 -84.5 -30.5t-18.5 -106.5v-29h207v-190h-207v-752h-258v752h-158z" />
<glyph unicode="g" horiz-adv-x="1247" d="M102 -242q0 66 26 123t65 86q-89 67 -89 191q0 58 34 112t89 72q-100 100 -100 258q0 166 115 269.5t340 103.5q194 0 311 -84q82 76 197 76q68 0 116 -23q-5 -33 -15 -98.5t-15 -98.5q-39 21 -88 26q-14 1 -27 1q-32 0 -60 -8q35 -75 35 -164q0 -166 -115 -270.5 t-339 -104.5q-103 0 -189 25q-26 -2 -43.5 -10.5t-24 -21t-8.5 -19.5t-2 -15q0 -41 32.5 -51t152.5 -10h225q189 -1 282 -88t93 -248q0 -152 -127 -252t-357 -100h-67q-114 0 -202.5 27.5t-140.5 74.5t-78 103t-26 118zM312 -156q-3 -18 -3 -35t4 -34q14 -52 74.5 -87.5 t177.5 -35.5h49q137 0 190.5 37.5t53.5 103.5q0 24 -9 42t-31.5 35.5t-69 26.5t-113.5 9h-232q-27 0 -67 4q-16 -30 -24 -66zM365 600q0 -88 54 -141t163 -53t163 53t54 141t-54 141.5t-163 53.5t-163 -53.5t-54 -141.5z" />
<glyph unicode="h" horiz-adv-x="1132" d="M123 0v1331h258v-561q42 102 121 152.5t174 50.5q334 0 334 -410v-563h-258v532q0 134 -34.5 183t-111.5 49q-103 0 -164 -88t-61 -205v-471h-258z" />
<glyph unicode="i" horiz-adv-x="503" d="M96 1272q0 66 45 112t111 46t111 -46t45 -112t-45 -110t-111 -44t-111 44t-45 110zM123 0v942h258v-942h-258z" />
<glyph unicode="j" horiz-adv-x="503" d="M-76 -358l27 196q20 -8 67 -8q105 0 105 170v942h258v-962q0 -365 -301 -365q-30 0 -85 8.5t-71 18.5zM96 1272q0 66 45 112t111 46t111 -46t45 -112t-45 -110t-111 -44t-111 44t-45 110z" />
<glyph unicode="k" horiz-adv-x="1085" d="M123 0v1331h258v-823l352 434h307l-395 -442v-13l420 -487h-328l-356 461v-461h-258z" />
<glyph unicode="l" horiz-adv-x="503" d="M123 0v1331h258v-1331h-258z" />
<glyph unicode="m" horiz-adv-x="1638" d="M123 0v942h248v-158q51 93 124 141t150 48q40 0 69 -3t62 -14.5t57 -32t47 -56.5t38 -87h10q44 93 119 143t165 50q67 0 118.5 -18.5t95 -62t67 -127t23.5 -202.5v-563h-259v532q0 121 -35 171.5t-106 50.5q-69 0 -118.5 -62.5t-49.5 -179.5v-512h-258v532 q0 121 -35 171.5t-106 50.5q-69 0 -118.5 -62.5t-49.5 -179.5v-512h-258z" />
<glyph unicode="n" horiz-adv-x="1132" d="M123 0v942h237v-192q100 223 316 223q334 0 334 -410v-563h-258v532q0 134 -34.5 183t-111.5 49q-103 0 -164 -88t-61 -205v-471h-258z" />
<glyph unicode="o" horiz-adv-x="1175" d="M82 471q0 226 136.5 364t369.5 138t369.5 -138t136.5 -364t-135 -364t-371 -138q-235 0 -370.5 138t-135.5 364zM340 471q0 -122 67 -206.5t181 -84.5q115 0 181.5 84t66.5 207q0 124 -66 208.5t-182 84.5q-114 0 -181 -84.5t-67 -208.5z" />
<glyph unicode="p" horiz-adv-x="1183" d="M123 -377v1319h237v-151q56 92 139.5 137t176.5 45q196 0 311 -132.5t115 -367.5q0 -234 -116.5 -367t-309.5 -133q-206 0 -295 162v-512h-258zM373 473q0 -137 62 -214t171 -77q116 0 173 82t57 209t-57 209t-173 82q-109 0 -171 -77t-62 -214z" />
<glyph unicode="q" horiz-adv-x="1183" d="M82 473q0 235 115 367.5t311 132.5q93 0 176 -45t139 -137v151h238v-1319h-258v512q-89 -162 -295 -162q-193 0 -309.5 133t-116.5 367zM348 473q0 -127 57 -209t173 -82q109 0 171 77t62 214t-62 214t-171 77q-116 0 -173 -82t-57 -209z" />
<glyph unicode="r" horiz-adv-x="874" d="M123 0v942h248v-240q28 79 69 134.5t87.5 81.5t86.5 36.5t82 10.5q69 0 117 -23l-27 -237q-35 12 -90 12q-138 0 -226.5 -93.5t-88.5 -234.5v-389h-258z" />
<glyph unicode="s" horiz-adv-x="978" d="M80 152l121 141q73 -70 150 -101.5t141 -31.5q67 0 116 24.5t49 79.5q0 43 -36.5 66.5t-139.5 54.5q-61 18 -98.5 30.5t-82 30t-70 34t-52 39t-39.5 48t-21.5 59t-8.5 74.5q0 74 32.5 129.5t88.5 85.5t120 44t137 14q113 0 213 -30.5t156 -80.5l-98 -168q-142 90 -260 90 q-15 0 -29 -1t-37.5 -6t-40.5 -14t-30 -27.5t-13 -43.5q0 -17 7.5 -28.5t28 -21t40 -15.5t61 -18t74.5 -23q152 -51 200 -77q99 -53 126 -145q12 -43 12 -100q0 -127 -108.5 -211t-286.5 -84q-127 0 -244 48.5t-178 134.5z" />
<glyph unicode="t" horiz-adv-x="798" d="M82 752v190h137v246h258v-246h187v-190h-187v-426q0 -9 -0.5 -31t0 -29t2 -23t4.5 -20.5t9 -14t14.5 -12t22 -5.5t30.5 -3q19 0 58 6t47 9l32 -197q-108 -37 -196 -37q-157 0 -219 73.5t-62 229.5v480h-137z" />
<glyph unicode="u" horiz-adv-x="1132" d="M123 379v563h258v-532q0 -133 39.5 -182.5t118.5 -49.5q102 0 157.5 87t55.5 206v471h258v-942h-238v193q-100 -224 -303 -224q-55 0 -102.5 10.5t-93.5 39t-78 73.5t-52 118t-20 169z" />
<glyph unicode="v" horiz-adv-x="1093" d="M20 942h269l262 -526l254 526h268l-520 -983h-12z" />
<glyph unicode="w" horiz-adv-x="1572" d="M20 942h267l184 -496l309 537h13l309 -537l184 496h266l-383 -983h-12l-371 594l-370 -594h-13z" />
<glyph unicode="x" horiz-adv-x="1087" d="M41 0l354 492l-323 450h297l174 -287l176 287h297l-326 -450l357 -492h-297l-207 326l-205 -326h-297z" />
<glyph unicode="y" horiz-adv-x="1083" d="M41 942h272l244 -663l219 663h266l-493 -1319h-281l156 377z" />
<glyph unicode="z" horiz-adv-x="1003" d="M41 0v10l473 711h-412v221h820v-10l-473 -711h452v-221h-860z" />
<glyph unicode="{" horiz-adv-x="671" d="M61 485v156q42 0 85.5 47t43.5 109v350q0 80 23.5 139.5t63.5 93t94 52.5t114.5 17.5t124.5 -11.5v-232q-101 30 -141.5 -11t-40.5 -153v-278q0 -41 -10 -74t-30 -56.5t-38 -38.5t-45 -32q27 -17 45 -32t38 -38.5t30 -56.5t10 -74v-272q0 -112 40.5 -153t141.5 -11v-231 q-64 -10 -124.5 -11.5t-114.5 17.5t-94 52.5t-63.5 93t-23.5 139.5v344q0 62 -43.5 108.5t-85.5 46.5z" />
<glyph unicode="|" horiz-adv-x="493" d="M123 -307v1747h248v-1747h-248z" />
<glyph unicode="}" horiz-adv-x="671" d="M61 -74q101 -30 142 11t41 153v272q0 41 10 74t30 56.5t38 38.5t45 32q-27 17 -45 32t-38 38.5t-30 56.5t-10 74v278q0 112 -41 153t-142 11v232q64 10 124.5 11.5t114.5 -17.5t94 -52.5t63.5 -93t23.5 -139.5v-350q0 -62 43.5 -109t85.5 -47v-156q-42 0 -85.5 -46.5 t-43.5 -108.5v-344q0 -80 -23.5 -139.5t-63.5 -93t-94 -52.5t-114.5 -17.5t-124.5 11.5v231z" />
<glyph unicode="~" horiz-adv-x="1337" d="M82 346q4 67 20 124t46 106t74.5 77t106 37t140.5 -14l358 -113q103 -35 155.5 -4t49.5 137l223 -59q-4 -67 -20.5 -124t-46.5 -105.5t-74.5 -75.5t-106 -34t-139.5 19l-358 113q-104 33 -156 -1.5t-49 -141.5z" />
<glyph unicode="&#xa3;" horiz-adv-x="1378" d="M102 436v211h234q-14 31 -29 76h-205v190h179q3 214 135.5 333.5t355.5 119.5q127 0 222 -36.5t188 -129.5l-168 -192q-51 68 -104.5 95t-137.5 27q-90 0 -151 -54.5t-62 -162.5h311v-190h-288q7 -30 14 -76h274v-211h-272q-9 -51 -14 -74q35 -9 49 -14l215 -82 q70 -27 114 -28.5t68.5 29.5t22.5 102l223 -60q-5 -84 -30 -154t-72.5 -122.5t-118 -64t-166.5 21.5l-215 82q-100 42 -154 17t-51 -130l-223 59q6 106 49 203q51 124 67 215h-260z" />
<glyph unicode="&#xa4;" horiz-adv-x="1064" d="M82 190l113 224q-80 113 -80 262t80 262l-113 223l235 109l95 -207q66 12 120 12q57 0 119 -12l97 207l235 -109l-115 -223q84 -114 84 -262q0 -150 -84 -264l115 -222l-235 -108l-97 207q-50 -13 -119 -13q-66 0 -120 13l-95 -207zM354 676q0 -97 46 -154t132 -57 t133.5 57t47.5 154t-47.5 154t-133.5 57t-132 -57t-46 -154z" />
<glyph unicode="&#xa6;" horiz-adv-x="493" d="M123 -307v790h248v-790h-248zM123 647v793h248v-793h-248z" />
<glyph unicode="&#xa7;" horiz-adv-x="976" d="M102 137l136 135q30 -42 94.5 -67t132.5 -25q174 0 174 76q0 26 -22.5 47.5t-60 36t-85 31.5t-96.5 33t-96.5 41.5t-85 56t-60 77.5t-22.5 105q0 110 88 201q-97 70 -97 174q0 80 38.5 141.5t99.5 95t125.5 50t126.5 16.5q125 0 231.5 -50t150.5 -118l-135 -135 q-30 42 -94.5 67t-132.5 25q-174 0 -174 -76q0 -26 22.5 -47.5t60 -36t84.5 -31.5t97 -33t97 -41.5t84.5 -56t60 -77.5t22.5 -105q0 -110 -90 -203q98 -70 98 -172q0 -80 -38.5 -141.5t-99 -95t-125 -50t-126.5 -16.5q-125 0 -232 50t-151 118zM340 692q0 -27 17 -49 t46.5 -38t66.5 -30t80 -29q23 -7 34 -11q53 39 53 104q0 36 -35.5 65t-69.5 43t-112 40q-19 7 -29 10q-25 -21 -38 -43.5t-13 -61.5z" />
<glyph unicode="&#xa9;" horiz-adv-x="1165" d="M82 471q0 136 67 251.5t182 183t251 67.5t251.5 -67.5t182.5 -183t67 -251.5t-67 -251.5t-182.5 -183t-251.5 -67.5t-251 67.5t-182 183t-67 251.5zM240 471q0 -141 100.5 -242.5t241.5 -101.5t242.5 101.5t101.5 242.5t-101.5 242.5t-242.5 101.5t-241.5 -101.5 t-100.5 -242.5zM295 471q0 120 84.5 204.5t204.5 84.5q82 0 150 -43t106 -113l-129 -80q-18 38 -52.5 62t-74.5 24q-56 0 -95.5 -41.5t-39.5 -97.5t39.5 -97.5t95.5 -41.5q39 0 74.5 23.5t52.5 60.5l129 -80q-37 -70 -105.5 -112t-150.5 -42q-120 0 -204.5 84.5t-84.5 204.5 z" />
<glyph unicode="&#xab;" horiz-adv-x="1024" d="M61 481l371 482l184 -129l-292 -353l292 -352l-184 -129zM451 481l344 393l168 -135l-252 -258l252 -282l-168 -131z" />
<glyph unicode="&#xad;" d="M102 385v211h686v-211h-686z" />
<glyph unicode="&#xae;" horiz-adv-x="1165" d="M82 471q0 136 67 251.5t182 183t251 67.5t251.5 -67.5t182.5 -183t67 -251.5t-67 -251.5t-182.5 -183t-251.5 -67.5t-251 67.5t-182 183t-67 251.5zM240 471q0 -141 100.5 -242.5t241.5 -101.5t242.5 101.5t101.5 242.5t-101.5 242.5t-242.5 101.5t-241.5 -101.5 t-100.5 -242.5zM373 233v467h286q65 -2 110.5 -47.5t45.5 -109.5q0 -86 -72 -131l93 -179h-170l-64 154h-80v-154h-149zM522 496h96q21 0 35.5 13.5t14.5 33.5t-15 34.5t-35 14.5h-96v-96z" />
<glyph unicode="&#xb0;" horiz-adv-x="530" d="M20 1116q0 109 67.5 177.5t176.5 68.5t177.5 -68.5t68.5 -177.5t-68.5 -176.5t-177.5 -67.5t-176.5 67.5t-67.5 176.5zM170 1116q0 -44 26 -69t68 -25t68 25t26 69t-26 69t-68 25t-68 -25t-26 -69z" />
<glyph unicode="&#xb1;" horiz-adv-x="1116" d="M102 72v231h912v-231h-912zM102 666v231h330v289h252v-289h330v-231h-330v-289h-252v289h-330z" />
<glyph unicode="&#xb6;" horiz-adv-x="1169" d="M41 1061q0 157 111 268t268 111h237v-1747h-237v989q-157 0 -268 111t-111 268zM788 -307v1747h259v-1747h-259z" />
<glyph unicode="&#xb7;" horiz-adv-x="557" d="M123 504q0 66 45 112t111 46t110.5 -46t44.5 -112t-44.5 -110t-110.5 -44t-111 44t-45 110z" />
<glyph unicode="&#xbb;" horiz-adv-x="1024" d="M61 199l252 282l-252 258l168 135l344 -393l-344 -413zM408 129l292 352l-292 353l184 129l371 -482l-371 -481z" />
<glyph unicode="&#x2000;" horiz-adv-x="815" />
<glyph unicode="&#x2001;" horiz-adv-x="1630" />
<glyph unicode="&#x2002;" horiz-adv-x="815" />
<glyph unicode="&#x2003;" horiz-adv-x="1630" />
<glyph unicode="&#x2004;" horiz-adv-x="543" />
<glyph unicode="&#x2005;" horiz-adv-x="407" />
<glyph unicode="&#x2006;" horiz-adv-x="271" />
<glyph unicode="&#x2007;" horiz-adv-x="271" />
<glyph unicode="&#x2008;" horiz-adv-x="203" />
<glyph unicode="&#x2009;" horiz-adv-x="326" />
<glyph unicode="&#x200a;" horiz-adv-x="90" />
<glyph unicode="&#x2010;" d="M102 385v211h686v-211h-686z" />
<glyph unicode="&#x2011;" d="M102 385v211h686v-211h-686z" />
<glyph unicode="&#x2012;" d="M102 385v211h686v-211h-686z" />
<glyph unicode="&#x2013;" horiz-adv-x="1054" d="M143 385v211h768v-211h-768z" />
<glyph unicode="&#x2014;" horiz-adv-x="1464" d="M205 385v211h1055v-211h-1055z" />
<glyph unicode="&#x2018;" horiz-adv-x="452" d="M61 944l154 449h176q-63 -449 -65 -449h-265z" />
<glyph unicode="&#x2019;" horiz-adv-x="452" d="M61 883q64 448 66 448h264l-153 -448h-177z" />
<glyph unicode="&#x201a;" horiz-adv-x="452" d="M61 -205q64 449 66 449h264l-153 -449h-177z" />
<glyph unicode="&#x201c;" horiz-adv-x="800" d="M41 944l154 449h176q-64 -449 -66 -449h-264zM410 944l153 449h176q-63 -449 -65 -449h-264z" />
<glyph unicode="&#x201d;" horiz-adv-x="800" d="M61 883q64 448 66 448h264l-153 -448h-177zM430 883q64 448 66 448h264l-154 -448h-176z" />
<glyph unicode="&#x201e;" horiz-adv-x="821" d="M61 -205q64 449 66 449h264l-153 -449h-177zM430 -205q64 449 66 449h264l-154 -449h-176z" />
<glyph unicode="&#x2022;" horiz-adv-x="655" d="M143 485q0 74 53.5 129.5t131.5 55.5q74 0 129 -54.5t55 -130.5q0 -78 -55 -131t-129 -53q-78 0 -131.5 55t-53.5 129z" />
<glyph unicode="&#x2026;" horiz-adv-x="1376" d="M82 143q0 66 45 112t111 46t110.5 -46t44.5 -112t-44.5 -109.5t-110.5 -43.5t-111 43.5t-45 109.5zM532 143q0 66 45 112t111 46t111 -46t45 -112t-45 -109.5t-111 -43.5t-111 43.5t-45 109.5zM983 143q0 66 45 112t111 46t110.5 -46t44.5 -112t-44.5 -109.5 t-110.5 -43.5t-111 43.5t-45 109.5z" />
<glyph unicode="&#x202f;" horiz-adv-x="326" />
<glyph unicode="&#x2039;" horiz-adv-x="677" d="M41 481l422 461l153 -149l-303 -312l303 -311l-153 -150z" />
<glyph unicode="&#x203a;" horiz-adv-x="677" d="M61 170l304 311l-304 312l154 149l422 -461l-422 -461z" />
<glyph unicode="&#x205f;" horiz-adv-x="407" />
<glyph unicode="&#x20ac;" horiz-adv-x="1138" d="M20 438v191h148v73h-148v191h158q11 125 51 217t102.5 146t138.5 80t167 26q80 0 140 -11.5t120 -41.5t106.5 -91.5t79.5 -154.5l-241 -94q-12 44 -32 75.5t-40 47.5t-47 25t-44.5 11t-41.5 2q-86 0 -139.5 -57.5t-57.5 -179.5h267v-191h-277v-73h277v-191h-267 q4 -122 57.5 -179.5t139.5 -57.5q24 0 41.5 2t44.5 11t47 25t40 47.5t32 75.5l241 -94q-33 -93 -79.5 -154.5t-106.5 -91.5t-120 -41.5t-140 -11.5q-91 0 -167 26t-138.5 80t-102.5 146t-51 217h-158z" />
<glyph unicode="&#x2122;" horiz-adv-x="1048" d="M20 1192v139h631l88 -241l88 241h201v-473h-166v197l-74 -197h-96l-74 197v-197h-167v334h-129v-334h-168v334h-134z" />
<glyph unicode="&#x25fc;" horiz-adv-x="942" d="M0 0v942h942v-942h-942z" />
</font>
</defs>
</svg>
